<?xml version="1.0" encoding="UTF-8" standalone="no"?>
<svg
   xmlns:dc="http://purl.org/dc/elements/1.1/"
   xmlns:cc="http://creativecommons.org/ns#"
   xmlns:rdf="http://www.w3.org/1999/02/22-rdf-syntax-ns#"
   xmlns:svg="http://www.w3.org/2000/svg"
   xmlns="http://www.w3.org/2000/svg"
   xmlns:sodipodi="http://sodipodi.sourceforge.net/DTD/sodipodi-0.dtd"
   xmlns:inkscape="http://www.inkscape.org/namespaces/inkscape"
   width="512mm"
   height="512mm"
   viewBox="0 0 512 512"
   version="1.1"
   id="svg938"
   inkscape:version="1.0.2 (e86c870879, 2021-01-15)"
   sodipodi:docname="easycheck.svg">
  <defs
     id="defs932" />
  <sodipodi:namedview
     id="base"
     pagecolor="#ffffff"
     bordercolor="#666666"
     borderopacity="1.0"
     inkscape:pageopacity="0.0"
     inkscape:pageshadow="2"
     inkscape:zoom="0.49497475"
     inkscape:cx="452.85923"
     inkscape:cy="376.72015"
     inkscape:document-units="px"
     inkscape:current-layer="layer1"
     inkscape:document-rotation="0"
     showgrid="false"
     inkscape:window-width="3840"
     inkscape:window-height="2110"
     inkscape:window-x="1920"
     inkscape:window-y="27"
     inkscape:window-maximized="1" />
  <metadata
     id="metadata935">
    <rdf:RDF>
      <cc:Work
         rdf:about="">
        <dc:format>image/svg+xml</dc:format>
        <dc:type
           rdf:resource="http://purl.org/dc/dcmitype/StillImage" />
        <dc:title></dc:title>
      </cc:Work>
    </rdf:RDF>
  </metadata>
  <g
     inkscape:label="Vrstva 1"
     inkscape:groupmode="layer"
     id="layer1">
    <g
       id="g3593">
      <g
         transform="matrix(5.2403504,0,0,5.2403504,-311.11867,-1554.522)"
         id="g36">
        <path
           d="m 59.847143,374.6913 h 21 l 1.5,-18.00125 -19.50125,-4.49875 z"
           fill="#4c4c4c"
           id="path2" />
        <path
           d="m 63.597143,349.19005 18.75,4.5 4.5,-15.75 -15.75,-8.24875 z"
           fill="#4c4c4c"
           id="path4" />
        <path
           d="m 72.595893,326.69005 15,8.25 12.00125,-8.25 -11.25,-12.75 z"
           fill="#4c4c4c"
           id="path6" />
        <path
           d="m 156.59589,374.6913 h -20.99875 l -1.50125,-18.00125 19.50125,-4.49875 z"
           fill="#4c4c4c"
           id="path8" />
        <path
           d="m 152.84589,349.19005 -18.75,4.5 -4.49875,-15.75 15.74875,-8.24875 z"
           fill="#4c4c4c"
           id="path10" />
        <path
           d="m 143.84589,326.69005 -15,8.25 -11.99875,-8.25 11.25,-12.75 z"
           fill="#4c4c4c"
           id="path12" />
        <path
           d="m 92.097143,311.69005 11.249997,13.5 h 10.49875 l 9.75125,-13.5 -9.75125,-3 h -10.7625 z"
           fill="#4c4c4c"
           id="path14" />
        <path
           d="m 59.847143,374.6913 h 21 l 1.5,-18.00125 -19.50125,-4.49875 z"
           fill="#9c0000"
           id="path16" />
        <path
           d="m 63.597143,349.19005 18.75,4.5 4.5,-15.75 -15.75,-8.24875 z"
           fill="#b50808"
           id="path18" />
        <path
           d="m 72.595893,326.69005 15,8.25 12.00125,-8.25 -11.25,-12.75 z"
           fill="#c61818"
           id="path20" />
        <path
           d="m 156.59589,374.6913 h -20.99875 l -1.50125,-18.00125 19.50125,-4.49875 z"
           fill="#9c0000"
           id="path22" />
        <path
           d="m 152.84589,349.19005 -18.75,4.5 -4.49875,-15.75 15.74875,-8.24875 z"
           fill="#b50808"
           id="path24" />
        <path
           d="m 143.84589,326.69005 -15,8.25 -11.99875,-8.25 11.25,-12.75 z"
           fill="#c61818"
           id="path26" />
        <path
           d="m 92.097143,311.69005 11.249997,13.5 h 10.49875 l 9.75125,-13.5 -9.75125,-3 h -10.7625 z"
           fill="#ce3129"
           id="path28" />
      </g>
      <g
         id="g3437" />
      <g
         id="g3570"
         transform="matrix(1.7060813,0,0,1.7060813,165.2944,604.5029)">
        <path
           id="use2851"
           fill="#8b0000"
           d="m 28.701233,-226.86081 -0.424531,4.13922 -0.53067,4.13923 -2.122676,0.95518 -2.122675,0.95522 -3.396277,-2.75949 -3.290146,-2.65333 -2.865611,2.86558 -2.865607,2.86562 2.653341,3.29017 2.653342,3.39626 -0.955202,2.01653 -0.955204,2.01657 -3.714682,0.53067 c -2.1226713,0.31838 -3.9269465,0.53064 -4.2453468,0.6368 -0.3183815,0.10613 -0.4245351,1.2736 -0.4245351,4.13919 v 3.92697 l 4.1392159,0.4245 c 2.547207,0.31839 4.245348,0.63684 4.245348,0.8491 0,0.21225 0.318419,1.2736 0.84907,2.22882 l 0.84907,1.9104 -2.653345,3.184 -2.653342,3.29014 2.865611,2.86562 2.865611,2.86562 3.184011,-2.44108 3.184012,-2.54724 1.910406,0.95522 c 1.061336,0.53068 2.122675,1.06135 2.334941,1.06135 0.106127,0.10613 0.424535,1.69815 0.742935,3.60855 0.212255,1.9104 0.424536,3.60855 0.53067,3.92693 0.106127,0.31838 1.167471,0.42455 4.033082,0.42455 h 4.033081 l 0.424536,-3.82084 c 0.318381,-2.97171 0.530669,-3.92693 1.061335,-4.03306 0.318382,-0.10613 1.37974,-0.53068 2.441076,-1.06135 l 1.804275,-0.84905 3.077877,2.5472 3.184011,2.44107 2.759477,-2.86562 c 2.122675,-2.12265 2.759476,-2.97175 2.54721,-3.29013 -0.212254,-0.31838 -1.37974,-1.69815 -2.441076,-3.07788 l -2.122675,-2.65333 0.955205,-1.91044 c 0.530666,-1.0613 0.84907,-2.12265 0.84907,-2.33491 0,-0.42454 0.84907,-0.6368 5.518953,-1.16747 l 2.334941,-0.31838 0.106127,-4.03306 0.106127,-4.0331 -4.033078,-0.42454 c -2.441076,-0.31839 -4.033081,-0.6368 -4.033081,-0.84906 0,-0.21225 -0.31842,-1.2736 -0.849071,-2.33495 l -0.955205,-2.01653 2.547211,-3.07787 2.547207,-3.18401 -2.865611,-2.86562 -2.865607,-2.86562 -3.184012,2.5472 -3.184011,2.5472 -2.22881,-0.95518 -2.228807,-0.95522 -0.530669,-3.92693 -0.53067,-4.0331 -4.033082,-0.10612 z m 3.926951,18.04271 c 4.669882,0 8.490698,3.82085 8.490698,8.49071 0,4.66989 -3.820816,8.4907 -8.490698,8.4907 -4.669887,0 -8.490699,-3.82081 -8.490699,-8.4907 0,-4.66986 3.820812,-8.49071 8.490699,-8.49071 z"
           style="opacity:0.3;stroke-width:0.106133" />
        <path
           id="use2853"
           fill="#8b0000"
           d="m 81.229453,-206.15161 -2.399588,4.44608 -2.518652,4.39679 -2.825064,0.0851 -2.825079,0.0851 -2.527713,-4.67375 -2.457972,-4.50532 -4.546189,1.88309 -4.546205,1.8831 1.447721,4.92381 1.39839,5.04284 -2.008567,1.8183 -2.008569,1.81835 -4.413719,-1.13078 c -2.529159,-0.62917 -4.651834,-1.22944 -5.058331,-1.25829 -0.406515,-0.0277 -1.068046,1.23141 -2.399597,4.44608 l -1.824713,4.40526 4.44611,2.3996 c 2.709511,1.54079 4.466543,2.68702 4.3679,2.92515 -0.09863,0.23793 -0.234623,1.57667 -0.08316,2.89479 l 0.06475,2.53764 -4.456018,2.3389 -4.505336,2.45801 1.883098,4.54618 1.883096,4.54617 4.706108,-1.25888 4.755422,-1.37797 1.699251,1.95922 c 0.944029,1.08848 1.888058,2.17695 2.126174,2.27563 0.06977,0.16844 -0.312815,2.1022 -0.843338,4.39325 -0.649581,2.24174 -1.20052,4.24532 -1.229413,4.65184 -0.029,0.40638 1.112407,1.0187 4.327046,2.35027 l 4.524319,1.87403 2.251636,-4.0889 c 1.738047,-3.18576 2.420021,-4.15867 3.064646,-4.03114 0.406516,0.0276 1.794375,0.046 3.231562,-0.0561 l 2.418572,-0.1141 2.269174,4.28768 2.437542,4.2179 4.427125,-1.93243 c 3.367552,-1.3949 4.476453,-2.05149 4.38628,-2.5073 -0.0901,-0.45563 -0.758729,-2.5461 -1.308217,-4.58704 l -1.148303,-3.96286 1.959249,-1.69923 c 1.088466,-0.94401 1.938816,-1.98671 2.037452,-2.22481 0.197251,-0.47625 1.248384,-0.31986 6.733655,1.25479 l 2.767292,0.72779 1.99309,-4.47502 1.99309,-4.47499 -4.32705,-2.35026 c -2.590441,-1.49146 -4.228409,-2.58839 -4.129778,-2.82652 0.09863,-0.23793 0.234622,-1.57667 0.132494,-3.01385 l -0.134517,-2.70604 4.287651,-2.26917 4.33696,-2.38819 -1.8831,-4.54623 -1.8831,-4.54618 -4.755423,1.37795 -4.755422,1.37796 -2.056435,-2.10718 -2.056421,-2.10723 1.229404,-4.65181 1.278727,-4.7709 -4.474989,-1.99308 z m -3.97857,22.06505 c 5.23868,2.16996 7.749476,8.23152 5.579545,13.47024 -2.169937,5.23868 -8.231533,7.74948 -13.470216,5.57952 -5.238679,-2.16995 -7.749466,-8.23151 -5.57953,-13.47018 2.169931,-5.23869 8.231518,-7.74949 13.470201,-5.57958 z"
           style="opacity:0.6;stroke-width:0.12887" />
        <path
           id="use2855"
           fill="#8b0000"
           d="m 27.987298,-168.1847 -0.501713,4.89175 -0.627148,4.89171 -2.508587,1.12888 -2.508587,1.12888 -4.013735,-3.26118 -3.888309,-3.13572 -3.386592,3.38656 -3.3865866,3.38661 3.1357306,3.88829 3.13573,4.01376 -1.12886,2.38314 -1.128866,2.38319 -4.390026,0.62711 c -2.5085826,0.37626 -4.6408828,0.62715 -5.0171697,0.75257 -0.3762646,0.12542 -0.5017174,1.50519 -0.5017174,4.89175 v 4.64091 l 4.8917437,0.50169 c 3.0103,0.37626 5.0171694,0.75257 5.0171694,1.00346 0,0.25084 0.37631,1.50515 1.003435,2.63403 l 1.003435,2.25772 -3.135735,3.76287 -3.1357305,3.88829 3.3865915,3.38661 3.386591,3.3866 3.762879,-2.88492 3.762878,-3.01029 2.257726,1.12888 c 1.254292,0.62715 2.508587,1.25431 2.759444,1.25431 0.125421,0.12542 0.501717,2.00683 0.878004,4.2646 0.250843,2.25772 0.501718,4.26455 0.627148,4.64086 0.125422,0.37627 1.379722,0.50173 4.766313,0.50173 h 4.766314 l 0.501717,-4.51544 c 0.376265,-3.51203 0.627148,-4.64091 1.254291,-4.76633 0.376265,-0.12542 1.630583,-0.62715 2.884875,-1.25431 l 2.1323,-1.00341 3.637448,3.01029 3.762878,2.88488 3.261161,-3.38661 c 2.508587,-2.50856 3.261161,-3.51203 3.010305,-3.88829 -0.250843,-0.37626 -1.630583,-2.00688 -2.884875,-3.63745 l -2.508587,-3.13576 1.128866,-2.25772 c 0.627143,-1.25426 1.003435,-2.50857 1.003435,-2.75941 0,-0.50173 1.003434,-0.75262 6.522322,-1.37973 l 2.759443,-0.37626 0.125422,-4.76629 0.125421,-4.76633 -4.766309,-0.50173 c -2.884874,-0.37626 -4.766313,-0.75257 -4.766313,-1.00342 0,-0.25084 -0.376309,-1.50514 -1.003435,-2.75945 l -1.128865,-2.38314 3.010304,-3.63745 3.010301,-3.76287 -3.386592,-3.3866 -3.386587,-3.38661 -3.762878,3.0103 -3.762879,3.01029 -2.634017,-1.12884 -2.634013,-1.12888 -0.627148,-4.64086 -0.627148,-4.76633 -4.766313,-0.12543 z m 4.640887,21.323 c 5.518887,0 10.034344,4.51544 10.034344,10.0343 0,5.51891 -4.515457,10.03435 -10.034344,10.03435 -5.518892,0 -10.034344,-4.51544 -10.034344,-10.03435 0,-5.51886 4.515452,-10.0343 10.034344,-10.0343 z"
           style="stroke-width:0.125429" />
      </g>
      <path
         id="path4420"
         d="m 319.33371,242.75186 c 17.40798,13.75722 30.00675,32.47934 35.68526,53.01758 1.29681,4.69285 2.05112,8.54448 2.80461,14.30281 0.61415,4.68672 0.77148,12.85217 0.34552,17.88932 -0.0838,0.99482 -0.16403,2.03017 -0.17812,2.30079 -0.34465,6.61748 -3.55749,18.81923 -7.01022,26.62332 -1.03767,2.34542 -1.37046,3.02712 -2.80388,5.74352 -1.9583,3.71113 -1.92961,3.77621 5.26609,11.88074 1.47199,1.65793 3.04011,3.42545 3.48482,3.92786 0.44471,0.50245 1.41727,1.6418 2.16122,2.53187 0.74399,0.89012 1.46088,1.59514 1.59304,1.56665 0.13222,-0.0284 1.31777,-0.60948 2.63463,-1.29126 5.04135,-2.60993 7.9575,-3.52147 8.72688,-2.72798 0.63921,0.65947 8.36065,6.92193 12.99226,10.53738 1.11576,0.87096 2.74737,2.15395 3.62575,2.85108 0.87842,0.69712 3.21072,2.48974 5.18292,3.98356 1.9722,1.49384 5.04394,3.82471 6.82614,5.17964 1.78218,1.35498 4.35855,3.30119 5.72529,4.32496 1.36674,1.02375 3.52158,2.64818 4.78857,3.60983 1.26697,0.96167 3.30485,2.50148 4.5286,3.4218 16.33789,12.28681 26.29008,20.19473 37.81046,30.04357 5.75575,4.92066 12.42002,10.92607 15.30296,13.78975 4.04219,4.01733 8.46421,12.51919 10.53462,20.24964 3.645,13.61993 -4.72648,26.0743 -19.69631,29.3025 -6.98132,1.5071 -13.61129,0.26332 -25.52696,-4.78642 -1.48237,-0.62823 -3.03254,-1.24003 -3.44485,-1.35957 -0.41233,-0.11956 -1.84258,-0.85032 -3.17843,-1.62402 -4.44449,-2.57409 -15.45122,-11.35248 -23.98015,-19.12527 -0.79236,-0.7221 -1.91814,-1.72516 -2.50179,-2.22903 -1.98175,-1.71091 -10.73801,-9.95811 -15.17832,-14.29569 -1.0719,-1.04712 -2.1282,-2.06922 -2.34732,-2.2713 -0.21912,-0.20211 -0.6763,-0.64586 -1.01594,-0.98613 -0.33965,-0.3403 -1.0051,-0.9931 -1.47879,-1.45065 -0.47368,-0.45757 -1.38809,-1.34502 -2.032,-1.97211 -0.64392,-0.6271 -2.36537,-2.30245 -3.8254,-3.72306 -1.46008,-1.42057 -3.14177,-3.06887 -3.73711,-3.66288 -0.59536,-0.59402 -1.90015,-1.85145 -2.89954,-2.79429 -0.99941,-0.94286 -2.0552,-1.96573 -2.34623,-2.27302 -0.29103,-0.30729 -1.0335,-1.01801 -1.64995,-1.57936 -0.61643,-0.56133 -1.32024,-1.24336 -1.564,-1.51555 -0.24375,-0.27222 -0.87027,-0.8967 -1.39229,-1.38772 -0.52202,-0.49102 -1.65634,-1.56946 -2.52072,-2.39654 -0.86438,-0.82707 -2.17472,-2.07593 -2.91184,-2.77525 -0.73712,-0.69932 -1.87131,-1.77796 -2.52042,-2.39701 -0.64912,-0.61902 -1.90551,-1.77425 -2.79198,-2.56714 -0.88646,-0.79289 -1.96661,-1.77805 -2.40034,-2.18924 -0.43371,-0.41117 -1.33778,-1.22606 -2.009,-1.81084 -0.67124,-0.5848 -1.61703,-1.42365 -2.10174,-1.86413 -1.81118,-1.64589 -3.20078,-2.87398 -5.4169,-4.78743 -1.65746,-1.43109 -2.30618,-2.10744 -2.37779,-2.47924 -0.0958,-0.49693 1.28527,-5.4896 1.69312,-6.12102 0.26441,-0.4093 -0.0119,-0.70015 -1.73828,-1.83627 -0.7851,-0.51675 -2.34539,-1.64438 -3.46693,-2.50643 -6.96161,-5.35101 -14.55099,-10.34156 -16.42065,-10.79774 -1.01278,-0.24711 -1.2079,-0.15406 -5.1447,2.45341 -7.28243,4.82345 -15.31407,9.14665 -21.44218,11.54183 -1.1226,0.43877 -2.27698,0.89718 -2.56526,1.01869 -16.77692,7.07214 -43.6418,5.76593 -63.67243,-3.09652 -3.23185,-1.42994 -3.9343,-1.76009 -6.19355,-2.91112 -3.1275,-1.59342 -12.05841,-7.36245 -14.44408,-9.33035 -2.87852,-2.37447 -6.68678,-5.82645 -7.93922,-7.19642 -0.89347,-0.97731 -1.69158,-1.833 -2.47902,-2.65794 -1.76133,-1.84511 -6.08927,-7.21129 -8.11936,-10.06701 -4.98832,-7.01735 -9.72714,-15.61221 -12.57715,-22.81051 -2.63099,-6.64686 -4.65509,-14.56865 -5.26925,-20.62301 -0.0758,-0.74836 -0.15481,-1.42872 -0.17531,-1.5119 -0.0417,-0.16906 -0.18861,-2.80468 -0.25188,-4.51883 -0.0436,-1.17854 -0.0352,-1.48505 0.14103,-5.21611 0.22814,-4.82495 1.29879,-11.33967 2.6261,-15.97742 0.30404,-1.06238 0.61468,-2.17774 0.69033,-2.47853 0.14259,-0.56698 1.67954,-4.95214 2.36196,-6.73899 3.48153,-9.1162 10.7428,-21.07672 18.13165,-29.86562 4.2667,-5.0753 9.37661,-10.33777 13.27783,-13.67429 0.27951,-0.23902 1.5955,-1.39156 2.92441,-2.56118 1.32894,-1.1696 2.61589,-2.28368 2.85992,-2.4757 25.96785,-20.43497 54.52474,-26.77502 81.19457,-18.02589 2.68294,0.88013 4.9912,1.69783 6.00135,2.12603 4.56839,1.93664 5.40169,2.32958 10.19245,4.80619 2.69887,1.3952 9.76807,6.04306 12.62139,8.29832 z m -17.44069,-4.16178 c -4.81185,-2.41641 -14.79076,-5.93472 -16.11331,-5.68131 -0.15164,0.029 -0.4189,-0.0397 -0.59389,-0.15267 -0.17498,-0.11301 -0.76344,-0.27385 -1.30768,-0.35734 -0.54424,-0.0835 -2.12428,-0.34381 -3.51124,-0.57849 -31.14062,-5.26868 -62.05259,8.64305 -86.41525,38.89076 -12.34794,15.33052 -19.90642,32.08612 -20.86577,46.25389 -0.067,0.99011 -0.14119,1.83011 -0.16475,1.86667 -0.11372,0.17606 -0.0119,4.84285 0.16423,7.45915 0.47825,7.25129 2.31704,14.83719 5.55492,23.05225 1.06157,2.68704 3.33023,7.71777 3.54555,7.85686 0.0675,0.0436 0.28366,0.45949 0.48038,0.92423 2.81759,6.66114 11.55747,18.28704 19.67804,26.18693 10.86157,10.56405 27.73858,19.63722 40.20385,21.6142 0.69779,0.11074 1.71133,0.31312 2.25236,0.44992 1.24258,0.3142 9.32976,1.23255 9.95467,1.13042 0.25619,-0.0423 0.53098,-0.0346 0.60275,0.0119 0.23852,0.15406 5.96411,0.0602 8.67094,-0.14233 15.42951,-1.15375 30.19643,-6.3516 41.76748,-14.70225 7.38605,-5.33071 8.86656,-6.20584 9.86625,-5.8327 0.79889,0.29827 11.13941,6.63846 18.66538,11.44449 6.47351,4.13391 5.95779,3.96147 7.01319,2.34494 1.69259,-2.59247 9.96175,-12.92697 11.74297,-14.67589 0.59191,-0.58119 0.66588,-0.73607 0.50521,-1.05776 -0.23402,-0.46855 -2.33092,-3.15965 -3.78155,-4.85311 -1.48628,-1.73508 -4.75193,-5.65423 -5.08533,-6.10304 -0.14962,-0.20138 -0.83098,-1.09529 -1.51411,-1.98645 -3.60736,-4.70584 -4.41367,-6.74915 -3.32695,-8.4315 3.97851,-6.15911 8.82074,-18.48779 9.98144,-25.41352 3.47126,-20.71711 1.06691,-39.74687 -6.99712,-55.38467 -0.18627,-0.3612 -0.7848,-1.53273 -1.33003,-2.60333 -1.01961,-2.00202 -3.86901,-6.87187 -4.91396,-8.3985 -0.32383,-0.47307 -0.8765,-1.30044 -1.22818,-1.83862 -3.64288,-5.57484 -9.18222,-12.29462 -13.90109,-16.86349 -3.56942,-3.456 -4.382,-4.17549 -7.84609,-6.94694 -2.34347,-1.87493 -8.8935,-6.04508 -11.74049,-7.47477 z m 3.78742,24.72559 c 7.58267,5.58357 15.72095,14.41781 20.85279,22.63613 2.82237,4.51997 6.07108,14.91422 7.06016,22.58804 1.34087,10.40541 -0.10861,23.66282 -3.53762,32.35543 -0.18635,0.4696 -0.60275,1.54333 -0.92417,2.38342 -10.29841,26.84393 -40.65275,48.23447 -69.88962,49.28581 -1.26482,0.0449 -2.96875,0.11431 -3.78675,0.15389 -1.41398,0.0632 -8.04875,-0.25556 -8.26407,-0.39464 -0.058,-0.0374 -1.14515,-0.19188 -2.41608,-0.3433 -2.64728,-0.31529 -6.40045,-1.08459 -9.04654,-1.85446 -1.00077,-0.29112 -2.11009,-0.61111 -2.46512,-0.71103 -6.82785,-1.92207 -16.58542,-7.78337 -22.35146,-13.42665 -0.84926,-0.83118 -1.68579,-1.67623 -2.80837,-2.83703 -0.82137,-0.84933 -5.38076,-6.49602 -6.60461,-8.17993 -0.44433,-0.61127 -1.3832,-1.90371 -2.08638,-2.87211 -0.70318,-0.96838 -1.69294,-2.41943 -2.19928,-3.22446 -0.50644,-0.80511 -0.96868,-1.49473 -1.02724,-1.53255 -0.22035,-0.14234 -3.0624,-5.14164 -4.07451,-7.1671 -2.92818,-5.86006 -4.95434,-12.55745 -5.3647,-17.73251 -0.46945,-5.9225 -0.61578,-10.05555 -0.46146,-13.02855 0.54515,-10.49267 2.42483,-16.92247 7.87934,-26.95193 24.39429,-44.85453 72.95361,-57.54472 111.5217,-29.14254 z m -17.43445,-4.70094 c -0.6567,-0.28254 -1.73009,-0.74666 -2.38536,-1.03139 -4.85254,-2.10852 -12.24611,-3.83782 -17.45287,-4.08192 -2.87796,-0.13492 -3.49511,-0.13734 -5.90478,-0.0229 -33.97934,1.62186 -62.07252,26.25564 -68.61701,60.16537 -3.76586,19.56936 3.09195,40.3684 18.32546,55.60221 0.76476,0.76479 1.49074,1.51136 1.61324,1.65902 3.26833,3.9398 16.22356,11.66972 23.02501,13.73817 14.81745,4.50652 30.2637,3.84296 45.97724,-1.97629 43.23512,-16.00982 59.77817,-71.90427 30.91895,-104.46885 -0.3236,-0.36514 -0.952,-1.07529 -1.39646,-1.57809 -6.26672,-7.08969 -16.49812,-14.73268 -24.09979,-18.00311 z m -25.52058,4.27405 c -0.20356,0.31516 -3.81707,1.95942 -8.58522,3.90664 -4.84303,1.97769 -7.03874,2.83763 -10.6079,4.15383 -5.264,1.94126 -7.25312,2.65972 -8.61721,3.11289 -0.80505,0.26745 -2.19823,0.74072 -3.09597,1.05173 -4.32876,1.49969 -6.48417,2.02481 -6.57509,1.60219 -0.0753,-0.35 0.82731,-0.79197 7.49671,-3.67064 2.44602,-1.05578 4.84549,-2.09332 5.33224,-2.30556 2.09924,-0.91523 9.71919,-3.73664 15.50812,-5.74212 5.57585,-1.93943 9.63412,-2.86799 9.14384,-2.109 z m 8.51905,7.28302 c -0.19823,0.30685 -5.05168,2.59793 -8.17719,3.85996 -0.39971,0.16138 -2.13381,0.87219 -3.85367,1.57948 -8.29346,3.41126 -18.79329,7.20134 -30.34629,10.95423 -2.25519,0.73261 -3.24368,0.47926 -1.65744,-0.42487 1.51376,-0.86272 11.92427,-5.43736 14.57304,-6.40386 0.76105,-0.27768 2.07589,-0.80154 2.92193,-1.16416 1.46924,-0.62972 9.35263,-3.58256 12.58374,-4.71358 0.84259,-0.29489 1.93212,-0.68174 2.42118,-0.85966 5.71606,-2.07773 12.05947,-3.63069 11.53907,-2.82507 z m 9.57002,8.24481 c -0.50488,0.36882 -4.00433,2.04343 -6.29566,3.01245 -1.17762,0.49812 -3.58625,1.51701 -5.35241,2.26432 -10.53508,4.45722 -28.98342,11.30565 -37.12666,13.78125 -0.29398,0.0894 -1.18755,0.37634 -1.98574,0.6377 -2.38467,0.78075 -5.12115,1.51144 -5.27887,1.40956 -0.23156,-0.14957 0.20881,-0.69199 0.81261,-1.00089 0.30206,-0.15455 0.68655,-0.36391 0.85443,-0.46527 2.90518,-1.75452 19.02495,-8.45212 31.31776,-13.0121 2.80599,-1.04094 6.22696,-2.26241 7.60226,-2.71444 1.37528,-0.45206 2.79649,-0.92883 3.15816,-1.05937 6.07313,-2.19316 13.86551,-4.00157 12.2925,-2.85255 z m 1.39278,9.54556 c -0.94509,0.69035 -11.4942,5.25588 -18.42853,7.97558 -1.79655,0.70462 -3.71946,1.46504 -4.27335,1.68983 -0.81126,0.32924 -4.97178,1.90343 -9.13087,3.455 -2.24242,0.83645 -5.53946,2.01379 -6.46514,2.30869 -0.59679,0.19008 -1.97658,0.66288 -3.06622,1.0506 -1.08965,0.38775 -3.06054,1.0469 -4.37971,1.46476 -1.31918,0.41784 -2.91331,0.94212 -3.5425,1.16508 -1.98564,0.70353 -6.42664,1.95186 -6.58346,1.85055 -0.50885,-0.32869 0.65127,-0.99931 6.43948,-3.72364 1.84855,-0.86995 10.86324,-4.68061 13.19681,-5.57838 1.77275,-0.6821 1.96009,-0.75819 4.23946,-1.7224 1.25867,-0.53238 2.30455,-0.93029 4.2118,-1.60246 0.49033,-0.17281 2.52217,-0.92014 4.51523,-1.66076 7.9924,-2.96999 8.77278,-3.23998 15.12609,-5.23184 5.6636,-1.77569 9.53881,-2.46139 8.14099,-1.44029 z m 0.77478,11.28021 c -0.21765,0.33695 -1.36776,0.9107 -5.53116,2.75917 -12.73755,5.65557 -30.23361,12.27816 -43.57594,16.49409 -5.97806,1.88891 -6.49732,2.03334 -6.74187,1.87538 -0.56995,-0.36817 0.65314,-1.06262 6.59971,-3.74731 19.31855,-8.72707 50.83892,-19.84856 49.24641,-17.38319 z m 3.72241,11.55925 c -0.42981,0.66539 -12.44424,5.8865 -22.0678,9.59006 -2.62099,1.00863 -5.30248,2.0453 -5.95873,2.30343 -1.14903,0.45209 -8.74966,3.20179 -13.02054,4.71065 -1.1351,0.401 -3.17205,1.08776 -4.5267,1.52618 -1.35454,0.43844 -3.58106,1.16178 -4.94779,1.60766 -10.60717,3.45981 -3.5095,-0.64261 12.05077,-6.96509 0.86395,-0.35104 2.01917,-0.82024 2.56712,-1.04267 0.54797,-0.22241 2.20102,-0.89555 3.67347,-1.49574 1.47243,-0.6003 3.68978,-1.46438 4.92767,-1.92022 1.23783,-0.45582 3.00728,-1.11946 3.93217,-1.47462 1.79735,-0.6903 3.72136,-1.3715 11.35897,-4.02216 6.58412,-2.2799 12.57887,-3.6868 12.01558,-2.81476 z m 3.92523,11.24524 c -0.35291,0.54634 -10.85991,5.925 -17.2846,8.84826 -0.82577,0.37572 -2.62192,1.19215 -3.99149,1.81444 -18.30833,8.31822 -34.60738,14.4321 -33.36701,12.51741 0.3755,-0.58132 10.35632,-5.58631 18.08067,-9.06845 1.29593,-0.5842 2.97371,-1.34228 3.72842,-1.6848 0.75474,-0.34242 1.49408,-0.66587 1.64303,-0.71878 0.14894,-0.0529 2.44943,-1.03476 5.11225,-2.18192 2.66284,-1.14717 5.32158,-2.2906 5.90844,-2.5409 1.33828,-0.57099 5.20784,-2.12477 7.16172,-2.87567 12.61774,-4.84927 13.70533,-5.19445 13.00411,-4.1089 z m 1.29644,11.37812 c -0.11158,0.17271 -1.34118,0.89469 -2.73128,1.60519 -1.39011,0.71051 -3.11407,1.5995 -3.83106,1.97554 -1.34188,0.70384 -2.86687,1.44639 -8.26733,4.02552 -9.58508,4.57777 -24.66135,11.03319 -31.29044,13.39848 -0.83692,0.29858 -2.46421,0.88391 -3.61621,1.30082 -12.95608,4.68768 -0.1092,-2.54991 19.93473,-11.23087 6.77932,-2.93602 7.71699,-3.33176 12.38206,-5.22529 12.34863,-5.01216 18.13939,-6.95673 17.41953,-5.84939 z m 2.27159,9.08107 c -0.2251,0.34848 -6.15376,3.50413 -9.88845,5.2632 -0.87653,0.41285 -2.13793,1.02849 -2.8031,1.36806 -1.0373,0.52955 -3.1054,1.48916 -10.08038,4.6777 -7.67303,3.5074 -21.00098,8.98451 -25.94772,10.66255 -8.71009,2.95549 -8.6492,2.08648 0.15423,-2.20583 1.07614,-0.52468 2.79011,-1.36298 3.8088,-1.86276 1.0187,-0.49985 2.75257,-1.32391 3.85288,-1.83101 1.10043,-0.50718 2.80662,-1.29331 3.79141,-1.74685 13.60264,-6.26375 36.0276,-15.17017 36.87417,-14.64621 0.1749,0.10813 0.28198,0.25241 0.23832,0.31999 z m -1.00653,12.18758 c -0.31189,0.4828 -9.50147,5.14751 -15.09248,7.66074 -1.30287,0.58572 -3.12913,1.41305 -4.05819,1.83824 -3.66467,1.67743 -11.93102,5.13215 -15.73612,6.5762 -4.83554,1.83504 -6.06359,2.26773 -7.53932,2.65515 -2.78892,0.7324 -2.35244,0.0377 1.09031,-1.73505 1.38549,-0.71347 2.86193,-1.47628 3.28094,-1.69514 0.41902,-0.21886 0.9373,-0.45626 1.15169,-0.52755 0.21442,-0.0713 1.29509,-0.5748 2.40154,-1.11886 3.77288,-1.8552 13.79373,-6.25804 19.33043,-8.49308 11.49606,-4.64817 15.76713,-6.103 15.1621,-5.16637 z m 1.4362,9.74527 c -0.0304,1.5278 -36.00746,17.17943 -36.60387,15.92448 -0.19766,-0.41583 3.2138,-2.36078 7.62825,-4.34907 0.32322,-0.14555 0.92016,-0.42512 1.32658,-0.62126 4.15977,-2.00732 12.58037,-5.62206 18.72011,-8.03643 7.42128,-2.91806 8.93925,-3.41423 8.92955,-2.91849 z m 73.09227,22.01578 c -10.73827,4.99856 -18.64619,13.19888 -22.50715,23.3392 -1.42236,3.73567 -1.43422,3.58814 0.41193,5.15804 0.83459,0.7097 3.20372,2.83044 5.26491,4.71289 3.85874,3.52417 4.16455,3.72001 4.41977,2.83045 1.9476,-6.79049 13.60507,-19.26599 23.70911,-25.3728 3.46724,-2.09561 3.49502,-1.5683 -0.23531,-4.47126 -2.58527,-2.012 -4.98782,-3.95489 -6.18056,-4.99801 -0.49157,-0.4299 -1.34083,-1.08513 -1.88727,-1.45604 l -0.99352,-0.67445 -2.00198,0.93193 z m 16.64926,13.55191 c -1.83819,0.95436 -3.18132,1.76028 -5.86759,3.52091 -6.8218,4.47101 -14.02875,13.09437 -17.58372,21.03939 -1.32896,2.97 -1.34126,3.20316 -0.22344,4.22629 1.28222,1.17345 5.43451,5.17509 9.0633,8.73441 7.55534,7.41081 11.0669,10.88435 11.55478,11.42939 0.76719,0.85721 0.83904,0.77701 3.08438,-3.44226 3.2637,-6.13284 8.83111,-13.12861 14.20317,-17.84717 4.72122,-4.14673 7.82593,-6.49634 11.63411,-8.80454 1.66837,-1.01124 1.66137,-1.02722 -1.43213,-3.27871 -1.41593,-1.03049 -2.94658,-2.17583 -3.40146,-2.5452 -0.45483,-0.36934 -2.02384,-1.56465 -3.48663,-2.65624 -1.46278,-1.09158 -4.07431,-3.07197 -5.80342,-4.40085 -3.52256,-2.70727 -7.11869,-5.37903 -8.61642,-6.40159 l -0.99604,-0.68002 -2.12802,1.10481 z m 29.16713,22.08294 c -11.2712,7.86283 -20.09276,18.76765 -25.12875,31.06754 -0.76971,1.88051 3.50143,7.26382 8.26756,10.41627 l 0.71268,0.47141 2.19997,-3.53774 c 6.86856,-11.04544 18.88693,-21.83527 29.94334,-26.88187 2.09842,-0.95784 2.13708,-0.86392 -1.44788,-3.51767 -1.46664,-1.08561 -4.08063,-3.06221 -5.80884,-4.39245 -3.34502,-2.57469 -5.18067,-3.92091 -6.21007,-4.55433 -0.63048,-0.38795 -0.64827,-0.38136 -2.52772,0.92954 z m 19.89913,14.06182 c -1.63913,0.81822 -6.45797,3.59322 -7.54484,4.34473 -0.41829,0.28925 -1.17226,0.80477 -1.67549,1.14557 -8.0106,5.4252 -17.56005,16.30691 -21.92614,24.98602 -0.85364,1.69694 -0.94236,1.4577 1.26753,3.41896 0.84454,0.74953 2.14661,1.92261 2.89348,2.60683 2.10168,1.92722 7.04291,6.24555 7.43046,6.49592 0.10766,0.0694 1.28582,-1.61477 3.09394,-4.42252 7.52245,-11.6812 17.80447,-20.78235 30.74234,-27.21256 1.29375,-0.64295 1.27364,-0.77106 -0.31784,-2.02443 -0.60555,-0.47689 -1.65091,-1.34443 -2.32306,-1.92779 -2.094,-1.81749 -8.18379,-6.7072 -9.24355,-7.42198 l -1.00999,-0.68123 -1.38795,0.69281 z m 18.06678,13.91832 c -1.40618,0.72427 -4.56863,2.42729 -4.59992,2.47575 -0.0216,0.0334 -0.99873,0.66035 -2.1714,1.39312 -1.17263,0.73272 -2.17476,1.39835 -2.2268,1.47891 -0.0523,0.0807 -0.68588,0.5494 -1.40829,1.0415 -3.05029,2.07783 -6.13399,4.73016 -9.43117,8.11175 -4.25267,4.36164 -4.97314,5.28726 -9.15394,11.76073 -4.5932,7.1119 -4.42527,6.38372 -1.93446,8.39167 1.03824,0.83696 2.48633,2.01241 3.21789,2.61208 2.92757,2.39974 5.01951,3.84047 5.20823,3.58691 0.0973,-0.13094 0.92171,-1.41651 1.83236,-2.85618 5.6264,-8.89947 14.7457,-17.86547 24.19453,-23.78774 0.7143,-0.44773 1.87822,-1.18353 2.58649,-1.63515 0.70826,-0.4516 2.1533,-1.26597 3.21113,-1.80965 l 1.92332,-0.98848 -0.232,-0.49923 c -0.31307,-0.67365 -3.323,-3.63156 -7.26129,-7.13578 -0.66609,-0.59271 -1.49461,-1.34736 -1.84114,-1.67701 -0.64993,-0.6183 -1.30542,-0.77704 -1.91348,-0.46344 z m 10.89618,15.02798 c -11.10957,6.3603 -19.32503,14.1242 -26.09498,24.66066 -3.16859,4.93145 -3.07206,4.54015 -1.33995,5.43446 18.27898,9.4373 35.5562,4.65307 38.59176,-10.68351 1.33416,-6.73918 -1.49283,-15.46949 -6.75069,-20.84681 -0.63316,-0.64788 -0.94375,-0.54668 -4.40618,1.43569 z"
         style="stroke-width:0.21361" />
    </g>
  </g>
</svg>
